<svg width="1280" height="600" viewBox="0 0 1280 600" xmlns="http://www.w3.org/2000/svg" xmlns:xlink="http://www.w3.org/1999/xlink">
<defs>

  <radialGradient id="bgGlow" cx="50%" cy="42%" r="65%">
    <stop offset="0%" stop-color="#0B1224"/>
    <stop offset="45%" stop-color="#050A17"/>
    <stop offset="100%" stop-color="#030712"/>
  </radialGradient>

  <radialGradient id="coreGlow" cx="50%" cy="50%" r="50%">
    <stop offset="0%" stop-color="#E0FBFF" stop-opacity="1"/>
    <stop offset="25%" stop-color="#67E8F9" stop-opacity="0.95"/>
    <stop offset="55%" stop-color="#22D3EE" stop-opacity="0.55"/>
    <stop offset="100%" stop-color="#22D3EE" stop-opacity="0"/>
  </radialGradient>

  <radialGradient id="violetHalo" cx="50%" cy="50%" r="50%">
    <stop offset="0%" stop-color="#8B5CF6" stop-opacity="0.35"/>
    <stop offset="100%" stop-color="#8B5CF6" stop-opacity="0"/>
  </radialGradient>

  <linearGradient id="ringGradA" x1="0%" y1="0%" x2="100%" y2="100%">
    <stop offset="0%" stop-color="#22D3EE" stop-opacity="0.9"/>
    <stop offset="50%" stop-color="#8B5CF6" stop-opacity="0.5"/>
    <stop offset="100%" stop-color="#22D3EE" stop-opacity="0"/>
  </linearGradient>

  <linearGradient id="ringGradB" x1="100%" y1="0%" x2="0%" y2="100%">
    <stop offset="0%" stop-color="#EC4899" stop-opacity="0.7"/>
    <stop offset="50%" stop-color="#8B5CF6" stop-opacity="0.4"/>
    <stop offset="100%" stop-color="#22D3EE" stop-opacity="0"/>
  </linearGradient>

  <linearGradient id="glassFill" x1="0%" y1="0%" x2="0%" y2="100%">
    <stop offset="0%" stop-color="#101A33" stop-opacity="0.75"/>
    <stop offset="100%" stop-color="#060B18" stop-opacity="0.75"/>
  </linearGradient>

  <linearGradient id="glassStroke" x1="0%" y1="0%" x2="100%" y2="100%">
    <stop offset="0%" stop-color="#67E8F9" stop-opacity="0.55"/>
    <stop offset="100%" stop-color="#8B5CF6" stop-opacity="0.25"/>
  </linearGradient>

  <linearGradient id="beamGrad" x1="0%" y1="0%" x2="100%" y2="0%">
    <stop offset="0%" stop-color="#22D3EE" stop-opacity="0"/>
    <stop offset="50%" stop-color="#67E8F9" stop-opacity="0.16"/>
    <stop offset="100%" stop-color="#22D3EE" stop-opacity="0"/>
  </linearGradient>

  <filter id="softBlur" x="-60%" y="-60%" width="220%" height="220%">
    <feGaussianBlur stdDeviation="8"/>
  </filter>
  <filter id="bigBlur" x="-100%" y="-100%" width="300%" height="300%">
    <feGaussianBlur stdDeviation="30"/>
  </filter>
  <filter id="glow" x="-80%" y="-80%" width="260%" height="260%">
    <feGaussianBlur stdDeviation="3.2" result="b"/>
    <feMerge>
      <feMergeNode in="b"/>
      <feMergeNode in="SourceGraphic"/>
    </feMerge>
  </filter>
  <filter id="panelShadow" x="-40%" y="-40%" width="180%" height="180%">
    <feDropShadow dx="0" dy="10" stdDeviation="14" flood-color="#000000" flood-opacity="0.55"/>
  </filter>

  <style>
    <![CDATA[
      .float1{ animation: floatY 6.5s ease-in-out infinite; }
      .float2{ animation: floatY 7.5s ease-in-out infinite 0.6s; }
      .float3{ animation: floatY 7s ease-in-out infinite 1.1s; }
      .float4{ animation: floatY 8s ease-in-out infinite 0.3s; }
      @keyframes floatY {
        0%,100% { transform: translateY(0px); }
        50% { transform: translateY(-6px); }
      }
      .drift{ animation: driftX 22s linear infinite; }
      @keyframes driftX {
        0% { transform: translate(0,0); opacity:0.15; }
        50% { opacity:0.55; }
        100% { transform: translate(-40px,-30px); opacity:0.15; }
      }
      .pulseSoft{ animation: pulseSoft 4.2s ease-in-out infinite; }
      @keyframes pulseSoft {
        0%,100% { opacity:0.35; }
        50% { opacity:0.9; }
      }
      .nodePulse{ animation: nodePulse 3.4s ease-in-out infinite; }
      @keyframes nodePulse {
        0%,100% { opacity:0.4; r:2.2; }
        50% { opacity:1; r:3.6; }
      }
      .titleGlow{ animation: titleGlow 5s ease-in-out infinite; }
      @keyframes titleGlow {
        0%,100% { opacity:0.85; }
        50% { opacity:1; }
      }
      .beam{ animation: sweep 6s ease-in-out infinite; }
      @keyframes sweep {
        0% { transform: translateX(-200px); opacity:0; }
        8% { opacity:1; }
        45% { opacity:1; }
        55% { opacity:0; }
        100% { transform: translateX(1400px); opacity:0; }
      }
    ]]>
  </style>
</defs>

<!-- ===================== BACKGROUND ===================== -->
<rect x="0" y="0" width="1280" height="600" fill="url(#bgGlow)"/>

<!-- faint grid -->
<g opacity="0.05" stroke="#67E8F9" stroke-width="1">
  <line x1="0" y1="150" x2="1280" y2="150"/>
  <line x1="0" y1="300" x2="1280" y2="300"/>
  <line x1="0" y1="450" x2="1280" y2="450"/>
  <line x1="213" y1="0" x2="213" y2="600"/>
  <line x1="426" y1="0" x2="426" y2="600"/>
  <line x1="640" y1="0" x2="640" y2="600"/>
  <line x1="853" y1="0" x2="853" y2="600"/>
  <line x1="1066" y1="0" x2="1066" y2="600"/>
</g>

<!-- ambient background particles -->
<g fill="#67E8F9">
  <circle class="drift" cx="140" cy="120" r="1.6" opacity="0.3"/>
  <circle class="drift" cx="1120" cy="480" r="1.8" opacity="0.3" style="animation-duration:26s;"/>
  <circle class="drift" cx="980" cy="90" r="1.3" opacity="0.25" style="animation-duration:19s;"/>
  <circle class="drift" cx="90" cy="470" r="1.5" opacity="0.28" style="animation-duration:24s;"/>
  <circle class="drift" cx="640" cy="60" r="1.2" opacity="0.22" style="animation-duration:20s;"/>
  <circle class="drift" cx="330" cy="540" r="1.4" opacity="0.25" style="animation-duration:23s;"/>
  <circle class="drift" cx="1000" cy="300" r="1.1" opacity="0.2" style="animation-duration:27s;"/>
</g>

<!-- terminal breadcrumb -->
<g opacity="0.6">
  <text x="40" y="40" font-family="Menlo, Consolas, monospace" font-size="11" fill="#4FD1E8" letter-spacing="0.5">laxman@ai-core:~$ init_systems()</text>
  <rect x="256" y="30" width="6" height="12" fill="#67E8F9">
    <animate attributeName="opacity" values="1;0;1" dur="1.1s" repeatCount="indefinite"/>
  </rect>
</g>

<!-- ghost octocat emblem -->
<g transform="translate(640,88)" opacity="0.2" class="float3">
  <g stroke="#67E8F9" stroke-width="1" fill="none" stroke-linecap="round" stroke-linejoin="round">
    <path d="M-14,-9 L-21,-22 L-6,-13 Z"/>
    <path d="M14,-9 L21,-22 L6,-13 Z"/>
    <ellipse cx="0" cy="0" rx="16" ry="14"/>
    <path d="M-10,12 Q-15,20 -8,27"/>
    <path d="M-3,13 Q-4,22 3,28"/>
    <path d="M4,13 Q9,21 13,25"/>
    <path d="M10,11 Q17,15 21,13"/>
  </g>
  <circle cx="-6" cy="-1" r="1.5" fill="#67E8F9"/>
  <circle cx="6" cy="-1" r="1.5" fill="#67E8F9"/>
</g>

<!-- extra twinkle sparkles -->
<g fill="#E0FBFF">
  <path d="M195,235 C195.6,238 197,239.4 200,240 C197,240.6 195.6,242 195,245 C194.4,242 193,240.6 190,240 C193,239.4 194.4,238 195,235 Z" opacity="0.55">
    <animate attributeName="opacity" values="0.15;0.75;0.15" dur="3.4s" repeatCount="indefinite"/>
  </path>
  <path d="M1090,340 C1090.5,342.4 1091.6,343.5 1094,344 C1091.6,344.5 1090.5,345.6 1090,348 C1089.5,345.6 1088.4,344.5 1086,344 C1088.4,343.5 1089.5,342.4 1090,340 Z" opacity="0.5">
    <animate attributeName="opacity" values="0.75;0.15;0.75" dur="2.8s" repeatCount="indefinite"/>
  </path>
  <path d="M760,470 C760.5,472.4 761.6,473.5 764,474 C761.6,474.5 760.5,475.6 760,478 C759.5,475.6 758.4,474.5 756,474 C758.4,473.5 759.5,472.4 760,470 Z" opacity="0.45">
    <animate attributeName="opacity" values="0.15;0.7;0.15" dur="3.9s" repeatCount="indefinite"/>
  </path>
</g>
<g style="mix-blend-mode:screen;">
  <rect class="beam" x="-200" y="0" width="220" height="600" fill="url(#beamGrad)"/>
</g>

<!-- ===================== CONNECTION LINES (modules -> core) ===================== -->
<g fill="none" stroke-linecap="round">
  <!-- TL -->
  <path id="lineTL" d="M 300,175 C 430,175 470,220 560,270" stroke="url(#ringGradA)" stroke-width="1.6" opacity="0.55"/>
  <!-- TR -->
  <path id="lineTR" d="M 980,175 C 850,175 810,220 720,270" stroke="url(#ringGradB)" stroke-width="1.6" opacity="0.55"/>
  <!-- BL -->
  <path id="lineBL" d="M 300,435 C 430,435 470,390 560,335" stroke="url(#ringGradB)" stroke-width="1.6" opacity="0.55"/>
  <!-- BR -->
  <path id="lineBR" d="M 980,435 C 850,435 810,390 720,335" stroke="url(#ringGradA)" stroke-width="1.6" opacity="0.55"/>

  <path d="M 300,175 C 430,175 470,220 560,270" stroke="#67E8F9" stroke-width="1.6" stroke-dasharray="4 10" opacity="0.6">
    <animate attributeName="stroke-dashoffset" from="0" to="-140" dur="3.2s" repeatCount="indefinite"/>
  </path>
  <path d="M 980,175 C 850,175 810,220 720,270" stroke="#EC4899" stroke-width="1.6" stroke-dasharray="4 10" opacity="0.55">
    <animate attributeName="stroke-dashoffset" from="0" to="-140" dur="3.6s" repeatCount="indefinite"/>
  </path>
  <path d="M 300,435 C 430,435 470,390 560,335" stroke="#8B5CF6" stroke-width="1.6" stroke-dasharray="4 10" opacity="0.55">
    <animate attributeName="stroke-dashoffset" from="0" to="-140" dur="3.4s" repeatCount="indefinite"/>
  </path>
  <path d="M 980,435 C 850,435 810,390 720,335" stroke="#22D3EE" stroke-width="1.6" stroke-dasharray="4 10" opacity="0.6">
    <animate attributeName="stroke-dashoffset" from="0" to="-140" dur="3.0s" repeatCount="indefinite"/>
  </path>
</g>

<!-- traveling data packets along the connection lines -->
<g filter="url(#glow)">
  <circle r="3" fill="#E0FBFF">
    <animateMotion dur="2.4s" repeatCount="indefinite" path="M 300,175 C 430,175 470,220 560,270"/>
  </circle>
  <circle r="3" fill="#E0FBFF">
    <animateMotion dur="2.4s" begin="1.2s" repeatCount="indefinite" path="M 560,270 C 470,220 430,175 300,175"/>
  </circle>
  <circle r="3" fill="#FBD4EC">
    <animateMotion dur="2.7s" repeatCount="indefinite" path="M 980,175 C 850,175 810,220 720,270"/>
  </circle>
  <circle r="3" fill="#FBD4EC">
    <animateMotion dur="2.7s" begin="1.3s" repeatCount="indefinite" path="M 720,270 C 810,220 850,175 980,175"/>
  </circle>
  <circle r="3" fill="#D6C7FB">
    <animateMotion dur="2.5s" repeatCount="indefinite" path="M 300,435 C 430,435 470,390 560,335"/>
  </circle>
  <circle r="3" fill="#D6C7FB">
    <animateMotion dur="2.5s" begin="1.25s" repeatCount="indefinite" path="M 560,335 C 470,390 430,435 300,435"/>
  </circle>
  <circle r="3" fill="#B6F3FF">
    <animateMotion dur="2.2s" repeatCount="indefinite" path="M 980,435 C 850,435 810,390 720,335"/>
  </circle>
  <circle r="3" fill="#B6F3FF">
    <animateMotion dur="2.2s" begin="1.1s" repeatCount="indefinite" path="M 720,335 C 810,390 850,435 980,435"/>
  </circle>
</g>

<!-- ===================== CENTRAL AI CORE ===================== -->
<g transform="translate(640,300)">

  <!-- outer ambient halo -->
  <circle r="190" fill="url(#violetHalo)" filter="url(#bigBlur)"/>
  <circle r="150" fill="url(#coreGlow)" filter="url(#softBlur)" opacity="0.7"/>

  <!-- 3D tilted orbit rings (ellipses at varied rotation = pseudo-3D) -->
  <g opacity="0.85">
    <ellipse rx="150" ry="52" fill="none" stroke="url(#ringGradA)" stroke-width="1.4" transform="rotate(-18)">
      <animateTransform attributeName="transform" type="rotate" from="-18 0 0" to="342 0 0" dur="26s" repeatCount="indefinite"/>
    </ellipse>
    <ellipse rx="150" ry="52" fill="none" stroke="url(#ringGradB)" stroke-width="1.1" transform="rotate(35)">
      <animateTransform attributeName="transform" type="rotate" from="35 0 0" to="-325 0 0" dur="34s" repeatCount="indefinite"/>
    </ellipse>
    <ellipse rx="118" ry="118" fill="none" stroke="#22D3EE" stroke-width="0.8" stroke-dasharray="1 7" opacity="0.5">
      <animateTransform attributeName="transform" type="rotate" from="0 0 0" to="360 0 0" dur="40s" repeatCount="indefinite"/>
    </ellipse>
    <ellipse rx="95" ry="34" fill="none" stroke="#8B5CF6" stroke-width="1.2" transform="rotate(70)" opacity="0.75">
      <animateTransform attributeName="transform" type="rotate" from="70 0 0" to="-290 0 0" dur="19s" repeatCount="indefinite"/>
    </ellipse>
  </g>

  <!-- orbiting particles on rings -->
  <circle r="2.6" fill="#E0FBFF" filter="url(#glow)">
    <animateMotion dur="26s" repeatCount="indefinite" path="M 150,0 A 150,52 0 1,1 -150,0 A 150,52 0 1,1 150,0" rotate="auto"/>
  </circle>
  <circle r="2.2" fill="#F6C6E8" filter="url(#glow)">
    <animateMotion dur="19s" repeatCount="indefinite" path="M 95,0 A 95,34 0 1,1 -95,0 A 95,34 0 1,1 95,0" rotate="auto"/>
  </circle>
  <circle r="2" fill="#C9B8FB" filter="url(#glow)">
    <animateMotion dur="34s" repeatCount="indefinite" path="M -150,0 A 150,52 0 1,1 150,0 A 150,52 0 1,1 -150,0" rotate="auto"/>
  </circle>

  <!-- layered neural network inside the sphere (input / hidden / output) -->
  <g opacity="0.95">
    <!-- layer node coordinates -->
    <!-- input layer x=-72, hidden layer x=0, output layer x=72 -->

    <!-- synapse links: input -> hidden -->
    <g stroke="#67E8F9" stroke-width="0.6" opacity="0.28">
      <line x1="-72" y1="-54" x2="0" y2="-64"/>
      <line x1="-72" y1="-54" x2="0" y2="-22"/>
      <line x1="-72" y1="-54" x2="0" y2="16"/>
      <line x1="-72" y1="-18" x2="0" y2="-64"/>
      <line x1="-72" y1="-18" x2="0" y2="-22"/>
      <line x1="-72" y1="-18" x2="0" y2="16"/>
      <line x1="-72" y1="-18" x2="0" y2="54"/>
      <line x1="-72" y1="18" x2="0" y2="-22"/>
      <line x1="-72" y1="18" x2="0" y2="16"/>
      <line x1="-72" y1="18" x2="0" y2="54"/>
      <line x1="-72" y1="18" x2="0" y2="-64"/>
      <line x1="-72" y1="54" x2="0" y2="16"/>
      <line x1="-72" y1="54" x2="0" y2="54"/>
      <line x1="-72" y1="54" x2="0" y2="-22"/>
    </g>
    <!-- synapse links: hidden -> output -->
    <g stroke="#C9B8FB" stroke-width="0.6" opacity="0.28">
      <line x1="0" y1="-64" x2="72" y2="-34"/>
      <line x1="0" y1="-64" x2="72" y2="0"/>
      <line x1="0" y1="-22" x2="72" y2="-34"/>
      <line x1="0" y1="-22" x2="72" y2="0"/>
      <line x1="0" y1="-22" x2="72" y2="34"/>
      <line x1="0" y1="16" x2="72" y2="0"/>
      <line x1="0" y1="16" x2="72" y2="34"/>
      <line x1="0" y1="16" x2="72" y2="-34"/>
      <line x1="0" y1="54" x2="72" y2="34"/>
      <line x1="0" y1="54" x2="72" y2="0"/>
    </g>

    <!-- traveling signal pulses along synapses -->
    <circle r="1.7" fill="#E0FBFF" filter="url(#glow)">
      <animateMotion dur="1.8s" repeatCount="indefinite" path="M -72,-54 L 0,-22"/>
    </circle>
    <circle r="1.7" fill="#E0FBFF" filter="url(#glow)">
      <animateMotion dur="2.1s" begin="0.5s" repeatCount="indefinite" path="M -72,18 L 0,16"/>
    </circle>
    <circle r="1.7" fill="#E0FBFF" filter="url(#glow)">
      <animateMotion dur="1.6s" begin="1s" repeatCount="indefinite" path="M -72,54 L 0,-22"/>
    </circle>
    <circle r="1.6" fill="#D6C7FB" filter="url(#glow)">
      <animateMotion dur="1.9s" begin="0.3s" repeatCount="indefinite" path="M 0,-22 L 72,0"/>
    </circle>
    <circle r="1.6" fill="#D6C7FB" filter="url(#glow)">
      <animateMotion dur="2.2s" begin="0.9s" repeatCount="indefinite" path="M 0,16 L 72,34"/>
    </circle>
    <circle r="1.6" fill="#D6C7FB" filter="url(#glow)">
      <animateMotion dur="1.7s" begin="1.4s" repeatCount="indefinite" path="M 0,54 L 72,0"/>
    </circle>

    <!-- input layer nodes -->
    <g fill="#B6F3FF" filter="url(#glow)">
      <circle class="nodePulse" cx="-72" cy="-54" r="2.4" style="animation-delay:0.1s"/>
      <circle class="nodePulse" cx="-72" cy="-18" r="2.4" style="animation-delay:0.7s"/>
      <circle class="nodePulse" cx="-72" cy="18" r="2.4" style="animation-delay:1.3s"/>
      <circle class="nodePulse" cx="-72" cy="54" r="2.4" style="animation-delay:1.9s"/>
    </g>
    <!-- hidden layer nodes -->
    <g fill="#E0FBFF" filter="url(#glow)">
      <circle class="nodePulse" cx="0" cy="-64" r="2.6" style="animation-delay:0.3s"/>
      <circle class="nodePulse" cx="0" cy="-22" r="2.8" style="animation-delay:0.9s"/>
      <circle class="nodePulse" cx="0" cy="16" r="2.8" style="animation-delay:1.5s"/>
      <circle class="nodePulse" cx="0" cy="54" r="2.6" style="animation-delay:2.1s"/>
    </g>
    <!-- output layer nodes -->
    <g fill="#F6C6E8" filter="url(#glow)">
      <circle class="nodePulse" cx="72" cy="-34" r="2.4" style="animation-delay:0.5s"/>
      <circle class="nodePulse" cx="72" cy="0" r="2.4" style="animation-delay:1.1s"/>
      <circle class="nodePulse" cx="72" cy="34" r="2.4" style="animation-delay:1.7s"/>
    </g>
  </g>

  <!-- pulsing intelligence core -->
  <circle r="26" fill="#083344" opacity="0.6"/>
  <circle r="20" fill="#67E8F9" filter="url(#glow)" opacity="0.9">
    <animate attributeName="r" values="18;23;18" dur="3.6s" repeatCount="indefinite"/>
    <animate attributeName="opacity" values="0.75;1;0.75" dur="3.6s" repeatCount="indefinite"/>
  </circle>
  <circle r="9" fill="#F0FDFF">
    <animate attributeName="r" values="8;10.5;8" dur="3.6s" repeatCount="indefinite"/>
  </circle>

  <!-- energy waves -->
  <circle r="26" fill="none" stroke="#22D3EE" stroke-width="1.2" opacity="0.6">
    <animate attributeName="r" values="26;70;26" dur="5.5s" repeatCount="indefinite"/>
    <animate attributeName="opacity" values="0.55;0;0.55" dur="5.5s" repeatCount="indefinite"/>
  </circle>
  <circle r="26" fill="none" stroke="#8B5CF6" stroke-width="1" opacity="0.5">
    <animate attributeName="r" values="26;70;26" dur="5.5s" begin="1.8s" repeatCount="indefinite"/>
    <animate attributeName="opacity" values="0.5;0;0.5" dur="5.5s" begin="1.8s" repeatCount="indefinite"/>
  </circle>
  <circle r="26" fill="none" stroke="#EC4899" stroke-width="0.8" opacity="0.4">
    <animate attributeName="r" values="26;70;26" dur="5.5s" begin="3.6s" repeatCount="indefinite"/>
    <animate attributeName="opacity" values="0.4;0;0.4" dur="5.5s" begin="3.6s" repeatCount="indefinite"/>
  </circle>
</g>

<!-- ===================== GLASS MODULES ===================== -->
<!-- TOP LEFT — GENERATIVE AI -->
<g class="float1" filter="url(#panelShadow)">
  <rect x="100" y="120" width="200" height="88" rx="14" fill="url(#glassFill)" stroke="url(#glassStroke)" stroke-width="1"/>
  <rect x="100" y="120" width="200" height="88" rx="14" fill="none" stroke="#22D3EE" stroke-width="1" opacity="0.18"/>
  <g transform="translate(272,144)" fill="#22D3EE" opacity="0.85" filter="url(#glow)">
    <path d="M0,-9 C1.4,-3 3,-1.4 9,0 C3,1.4 1.4,3 0,9 C-1.4,3 -3,1.4 -9,0 C-3,-1.4 -1.4,-3 0,-9 Z"/>
  </g>
  <circle cx="122" cy="146" r="3" fill="#22D3EE" class="pulseSoft"/>
  <text x="136" y="151" font-family="Helvetica, Arial, sans-serif" font-size="13.5" font-weight="700" fill="#E5F9FF" letter-spacing="1">GENERATIVE AI</text>
  <text x="122" y="176" font-family="Helvetica, Arial, sans-serif" font-size="11.5" fill="#8FB4C9">Gemini · LLMs</text>
  <text x="122" y="193" font-family="Helvetica, Arial, sans-serif" font-size="11.5" fill="#8FB4C9">Prompt Engineering</text>
</g>

<!-- TOP RIGHT — RAG SYSTEMS -->
<g class="float2" filter="url(#panelShadow)">
  <rect x="980" y="120" width="200" height="88" rx="14" fill="url(#glassFill)" stroke="url(#glassStroke)" stroke-width="1"/>
  <rect x="980" y="120" width="200" height="88" rx="14" fill="none" stroke="#EC4899" stroke-width="1" opacity="0.18"/>
  <g transform="translate(1152,142)" stroke="#EC4899" stroke-width="1.5" fill="none" stroke-linecap="round" opacity="0.85" filter="url(#glow)">
    <circle cx="-2" cy="-2" r="5"/>
    <line x1="2" y1="2" x2="7" y2="7"/>
  </g>
  <circle cx="1002" cy="146" r="3" fill="#EC4899" class="pulseSoft"/>
  <text x="1016" y="151" font-family="Helvetica, Arial, sans-serif" font-size="13.5" font-weight="700" fill="#FFE9F5" letter-spacing="1">RAG SYSTEMS</text>
  <text x="1002" y="176" font-family="Helvetica, Arial, sans-serif" font-size="11.5" fill="#C79BB8">Retrieval · Ranking</text>
  <text x="1002" y="193" font-family="Helvetica, Arial, sans-serif" font-size="11.5" fill="#C79BB8">Grounding</text>
</g>

<!-- BOTTOM LEFT — AGENTIC AI -->
<g class="float3" filter="url(#panelShadow)">
  <rect x="100" y="392" width="200" height="88" rx="14" fill="url(#glassFill)" stroke="url(#glassStroke)" stroke-width="1"/>
  <rect x="100" y="392" width="200" height="88" rx="14" fill="none" stroke="#8B5CF6" stroke-width="1" opacity="0.18"/>
  <g transform="translate(272,414)" opacity="0.9" filter="url(#glow)">
    <line x1="-6" y1="5" x2="0" y2="-6" stroke="#8B5CF6" stroke-width="1.1"/>
    <line x1="6" y1="5" x2="0" y2="-6" stroke="#8B5CF6" stroke-width="1.1"/>
    <line x1="-6" y1="5" x2="6" y2="5" stroke="#8B5CF6" stroke-width="1.1"/>
    <circle cx="-6" cy="5" r="2" fill="#8B5CF6"/>
    <circle cx="6" cy="5" r="2" fill="#8B5CF6"/>
    <circle cx="0" cy="-6" r="2" fill="#C9B8FB"/>
  </g>
  <circle cx="122" cy="418" r="3" fill="#8B5CF6" class="pulseSoft"/>
  <text x="136" y="423" font-family="Helvetica, Arial, sans-serif" font-size="13.5" font-weight="700" fill="#EDE6FF" letter-spacing="1">AGENTIC AI</text>
  <text x="122" y="448" font-family="Helvetica, Arial, sans-serif" font-size="11.5" fill="#A79BC9">LangGraph</text>
  <text x="122" y="465" font-family="Helvetica, Arial, sans-serif" font-size="11.5" fill="#A79BC9">Multi-Agent Systems</text>
</g>

<!-- BOTTOM RIGHT — CLOUD AI -->
<g class="float4" filter="url(#panelShadow)">
  <rect x="980" y="392" width="200" height="88" rx="14" fill="url(#glassFill)" stroke="url(#glassStroke)" stroke-width="1"/>
  <rect x="980" y="392" width="200" height="88" rx="14" fill="none" stroke="#22D3EE" stroke-width="1" opacity="0.18"/>
  <g transform="translate(1152,417)" fill="#22D3EE" opacity="0.85" filter="url(#glow)">
    <ellipse cx="-4" cy="1" rx="5" ry="4"/>
    <ellipse cx="3" cy="-1" rx="6" ry="5"/>
    <ellipse cx="9" cy="1.5" rx="4" ry="3.2"/>
    <rect x="-8" y="1" width="20" height="4" rx="2"/>
  </g>
  <circle cx="1002" cy="418" r="3" fill="#22D3EE" class="pulseSoft"/>
  <text x="1016" y="423" font-family="Helvetica, Arial, sans-serif" font-size="13.5" font-weight="700" fill="#E5F9FF" letter-spacing="1">CLOUD AI</text>
  <text x="1002" y="448" font-family="Helvetica, Arial, sans-serif" font-size="11.5" fill="#8FB4C9">Vertex AI · Cloud Run</text>
  <text x="1002" y="465" font-family="Helvetica, Arial, sans-serif" font-size="11.5" fill="#8FB4C9">BigQuery</text>
</g>

<!-- status chip -->
<g class="float2" transform="translate(100,548)" opacity="0.92">
  <rect x="-4" y="-16" width="168" height="28" rx="14" fill="#0B1224" stroke="#22D3EE" stroke-width="1" opacity="0.55"/>
  <circle cx="12" cy="-2" r="3.2" fill="#34D399">
    <animate attributeName="opacity" values="0.5;1;0.5" dur="2.2s" repeatCount="indefinite"/>
  </circle>
  <text x="24" y="2" font-family="Menlo, Consolas, monospace" font-size="10.5" fill="#9FE8F5" letter-spacing="0.5">SHIPPING TO PRODUCTION</text>
</g>

<!-- ===================== TITLE ===================== -->
<g text-anchor="middle" class="titleGlow">
  <text x="640" y="540" font-family="Helvetica, Arial, sans-serif" font-size="26" font-weight="800" fill="#F5FBFF" letter-spacing="3">K LAXMAN</text>
  <text x="640" y="562" font-family="Helvetica, Arial, sans-serif" font-size="12.5" fill="#67E8F9" letter-spacing="4">AI SYSTEMS ARCHITECTURE</text>
  <text x="640" y="584" font-family="Helvetica, Arial, sans-serif" font-size="12" fill="#7C93A8" font-style="italic">Building intelligent systems that survive production.</text>
</g>

</svg>
